<svg xmlns="http://www.w3.org/2000/svg" viewBox="0 0 238.29 32.5"><defs><style>.cls-1,.cls-3{fill:#047bc1;}.cls-2{fill:#fcaf17;}.cls-3{fill-rule:evenodd;}.cls-4{fill:#7aaadb;}</style></defs><g id="Layer_2" data-name="Layer 2"><g id="Layer_1-2" data-name="Layer 1"><path class="cls-1" d="M51.43,7.61a6.45,6.45,0,0,0-4.92,2.3V8.43H41.58V32.5h5.48V24.07a6.8,6.8,0,0,0,4.37,1.59,8.89,8.89,0,0,0,8.76-9,8.89,8.89,0,0,0-8.76-9m8.76,9a8.89,8.89,0,0,0-8.76-9m-.54,13a4,4,0,1,1,3.83-4,3.91,3.91,0,0,1-3.83,4"/><path class="cls-2" d="M69.22,22.38a3.29,3.29,0,1,1-3.29-3.28,3.28,3.28,0,0,1,3.29,3.28"/><path class="cls-3" d="M35,6.13a3.07,3.07,0,1,1,3.06-3.07A3.06,3.06,0,0,1,35,6.13"/><rect class="cls-1" x="32.28" y="8.43" width="5.47" height="16.42"/><polygon class="cls-3" points="0 0.77 0 5.36 7.11 5.36 7.11 24.84 12.59 24.84 12.59 5.36 19.7 5.36 19.7 0.77 0 0.77"/><path class="cls-1" d="M80.71,20.63a4,4,0,0,1,0-8,3.74,3.74,0,0,1,2.76,1.23l3.62-3.62a9,9,0,1,0,0,12.77L83.47,19.4a3.78,3.78,0,0,1-2.76,1.23"/><path class="cls-3" d="M128.6,7.6a5.53,5.53,0,0,0-5.1,2.69,5.46,5.46,0,0,0-4.9-2.69,5.34,5.34,0,0,0-4.79,2.69V8.43h-4.92V24.84h5.47V14.6a2.41,2.41,0,1,1,4.81,0V24.84h5.15V14.6a2.41,2.41,0,1,1,4.81,0V24.84h5.47V13.57c0-3.7-2.32-6-6-6"/><path class="cls-1" d="M97.12,7.61a9,9,0,1,0,9,9,9,9,0,0,0-9-9m0,13a4,4,0,1,1,3.83-4,3.92,3.92,0,0,1-3.83,4"/><path class="cls-1" d="M28.45,8.34A5.86,5.86,0,0,0,23.53,11V8.43H18.6V24.84h5.5V18a4.41,4.41,0,0,1,4.59-4.59,4.92,4.92,0,0,1,.86.09v-5a7.9,7.9,0,0,0-1.1-.09"/><path class="cls-4" d="M156.68,12.26h-.23v2.53h5.35V21.4a9.61,9.61,0,0,1-2.45,1,14.26,14.26,0,0,1-3.51.41A9.26,9.26,0,0,1,152,22a9,9,0,0,1-4.77-5.21,11.06,11.06,0,0,1,0-7.47,9.55,9.55,0,0,1,1.85-3.11A8.79,8.79,0,0,1,152,4.09a9.11,9.11,0,0,1,3.87-.79,9.5,9.5,0,0,1,3.7.68,8.15,8.15,0,0,1,2.77,1.9l.16.17.17-.16,1.62-1.62.16-.17-.16-.16a10.52,10.52,0,0,0-3.57-2.33,13,13,0,0,0-4.88-.84,12.59,12.59,0,0,0-4.83.92,11.62,11.62,0,0,0-6.42,6.44,12.71,12.71,0,0,0-.93,4.91,13.08,13.08,0,0,0,.91,4.91,11.45,11.45,0,0,0,6.39,6.44,12.81,12.81,0,0,0,4.88.92,18.61,18.61,0,0,0,4.56-.55A15.36,15.36,0,0,0,164.48,23l.11-.07V12.26h-7.91Z"/><path class="cls-4" d="M208.87,9.12h-.23v8a7.8,7.8,0,0,1-.38,2.56,5.11,5.11,0,0,1-1,1.77,3.91,3.91,0,0,1-1.39,1,4.11,4.11,0,0,1-1.61.33,4.36,4.36,0,0,1-1.89-.36,3,3,0,0,1-1.17-1,4.16,4.16,0,0,1-.63-1.58,10.68,10.68,0,0,1-.19-2.13V9.12h-2.66v9.52a7.06,7.06,0,0,0,1.49,4.68,5.55,5.55,0,0,0,4.5,1.8,6.36,6.36,0,0,0,3.19-.86,6.61,6.61,0,0,0,2-1.71v2.18h2.43V9.12h-2.43Z"/><path class="cls-4" d="M231,13.7a7.93,7.93,0,0,0-1.64-2.6,7.82,7.82,0,0,0-2.53-1.74,8.47,8.47,0,0,0-3.32-.63,7.52,7.52,0,0,0-3.29.78,6.26,6.26,0,0,0-2.27,1.87V9.12h-2.66V32.5h2.66v-10a6.34,6.34,0,0,0,2.27,1.82,7.52,7.52,0,0,0,3.29.78,8.38,8.38,0,0,0,3.31-.63,7.61,7.61,0,0,0,2.54-1.74,7.83,7.83,0,0,0,1.64-2.6,9.26,9.26,0,0,0,0-6.45m-2.59,5.53a5.74,5.74,0,0,1-1.07,1.87,4.91,4.91,0,0,1-1.72,1.23,5.73,5.73,0,0,1-2.33.45,5.5,5.5,0,0,1-2.24-.45,5.47,5.47,0,0,1-2.94-3.08,6.65,6.65,0,0,1,0-4.65,5.7,5.7,0,0,1,1.17-1.87A5.29,5.29,0,0,1,221,11.49a5.5,5.5,0,0,1,2.24-.45,5.57,5.57,0,0,1,2.33.46,5,5,0,0,1,1.72,1.26,5.59,5.59,0,0,1,1.07,1.86,7.18,7.18,0,0,1,0,4.61"/><path class="cls-4" d="M177.24,11.1V8.9l-.2,0a6.07,6.07,0,0,0-.85-.06,6.61,6.61,0,0,0-5.07,2.23c0-.61,0-1.39,0-1.71V9.12h-2.52V24.73h2.66v-9a4.58,4.58,0,0,1,4.57-4.57,4.92,4.92,0,0,1,1.14.13l.28.07Z"/><path class="cls-4" d="M186.25,8.41a8.53,8.53,0,1,0,8.52,8.52,8.53,8.53,0,0,0-8.52-8.52m0,14.69a6.06,6.06,0,0,1-5.93-6.17,5.94,5.94,0,1,1,11.87,0,6.06,6.06,0,0,1-5.94,6.17"/><polygon class="cls-4" points="232.6 9.65 231.56 9.65 231.56 9.12 234.24 9.12 234.24 9.65 233.2 9.65 233.2 12.51 232.6 12.51 232.6 9.65"/><polygon class="cls-4" points="234.63 9.12 235.57 9.12 236.45 11.53 236.47 11.53 237.34 9.12 238.29 9.12 238.29 12.51 237.69 12.51 237.69 9.78 237.68 9.78 236.65 12.51 236.23 12.51 235.22 9.78 235.21 9.78 235.21 12.51 234.63 12.51 234.63 9.12"/></g></g></svg>